#!OML:ASF I:\golf\golf\golf 2\Subject 1\2002-09-07\Subject1.ASF
:FULLY-SPECIFIED
:DEGREES
339
root -6.57342 18.0059 1.60171 2.44112 55.9383 -16.5547
lowerback 5.98911 -9.71977 -9.46709
upperback 1.16473 -13.4645 -0.222793
thorax 0.0137177 -6.73905 5.43608
lowerneck -8.87914 19.5095 1.46643
upperneck 15.7918 29.4383 -13.9807
head 8.78376 12.886 -1.32562
rclavicle -4.29375e-014 -3.18055e-015
rhumerus 21.4638 -26.1039 -59.5476
rradius 105.559
rwrist -17.3396
rhand -62.5136 48.5449
rfingers 7.12502
rthumb -34.5414 21.8829
lclavicle -4.29375e-014 -3.18055e-015
lhumerus 111.629 -45.8049 41.9089
lradius 33.8703
lwrist -7.25257
lhand -19.1651 2.95277
lfingers 7.12502
lthumb -172.854 -147.188
rfemur -35.0575 11.7174 19.4997
rtibia 25.2656
rfoot -3.79908 10.582
rtoes 6.58623
lfemur -14.8512 21.9747 0.198504
ltibia 26.5833
lfoot -6.46449 17.6647
ltoes -18.1576
340
root -6.58029 18.0112 1.52556 2.34467 56.9071 -16.9019
lowerback 5.93871 -9.45568 -9.05962
upperback 1.19472 -13.0829 -0.402778
thorax -0.121145 -6.53885 5.05178
lowerneck -8.3239 19.0638 2.89763
upperneck 16.0979 28.7298 -14.1454
head 8.96314 12.6253 -1.65862
rclavicle -1.62208e-013 -1.59028e-014
rhumerus 20.3143 -26.6468 -60.1759
rradius 105.135
rwrist -18.1554
rhand -62.3251 48.15
rfingers 7.12502
rthumb -34.3624 21.4474
lclavicle -1.62208e-013 -1.59028e-014
lhumerus 112.111 -47.0948 41.0438
lradius 33.4436
lwrist -6.88088
lhand -19.2216 3.07337
lfingers 7.12502
lthumb -172.909 -147.065
rfemur -35.2657 11.3065 19.1843
rtibia 25.073
rfoot -3.76716 9.89771
rtoes 5.56311
lfemur -15.8118 22.034 -0.321109
ltibia 26.5375
lfoot -6.74327 17.5891
ltoes -17.4283
341
root -6.58703 18.0136 1.44841 2.31886 57.8766 -17.1579
lowerback 5.99938 -9.7768 -9.0848
upperback 1.24854 -13.5165 0.237751
thorax 0.130316 -6.78292 5.69607
lowerneck -8.92079 19.1843 1.57743
upperneck 16.1029 29.0609 -14.051
head 8.89593 12.689 -1.39439
rclavicle -7.63333e-014 -6.36111e-015
rhumerus 21.2797 -25.3552 -61.1952
rradius 104.439
rwrist -19.0473
rhand -62.169 47.4544
rfingers 7.12502
rthumb -34.2142 20.7184
lclavicle -7.63333e-014 -6.36111e-015
lhumerus 110.346 -46.7673 42.5162
lradius 32.7902
lwrist -7.04194
lhand -19.0394 3.39606
lfingers 7.12502
lthumb -172.733 -146.749
rfemur -35.4773 11.0001 18.752
rtibia 24.8942
rfoot -3.76956 9.10752
rtoes 3.98518
lfemur -16.7721 22.1482 -0.946014
ltibia 26.4977
lfoot -6.85777 17.4859
ltoes -17.5682
342
root -6.59381 18.015 1.37373 2.23424 58.8492 -17.3396
lowerback 5.98144 -9.67056 -9.05992
upperback 1.39532 -13.3623 0.291055
thorax 0.277091 -6.7184 5.71901
lowerneck -8.88011 18.8956 2.12107
upperneck 16.3526 28.641 -14.0534
head 9.01634 12.5068 -1.50497
rclavicle -1.07344e-013 -3.18055e-015
rhumerus 20.7662 -25.2883 -62.0168
rradius 103.954
rwrist -19.929
rhand -61.9799 46.2733
rfingers 7.12502
rthumb -34.0346 19.4972
lclavicle -1.07344e-013 -3.18055e-015
lhumerus 110.17 -47.5075 42.2247
lradius 32.3864
lwrist -6.71674
lhand -18.6921 4.10848
lfingers 7.12502
lthumb -172.398 -146.048
rfemur -35.5172 10.6063 18.3513
rtibia 24.6979
rfoot -3.79641 8.36615
rtoes 1.7371
lfemur -17.577 22.2171 -1.55411
ltibia 26.4774
lfoot -7.14629 17.2714
ltoes -16.3771
343
root -6.60098 18.0176 1.29917 2.00369 59.8709 -17.6736
lowerback 5.99039 -9.63093 -9.05009
upperback 1.54814 -13.3018 0.554294
thorax 0.485073 -6.70904 5.9611
lowerneck -9.10513 18.6371 2.07683
upperneck 16.6269 28.322 -13.9306
head 9.09627 12.3368 -1.48255
rclavicle 6.36111e-014 2.54444e-014
rhumerus 20.6275 -25.0174 -62.8687
rradius 103.378
rwrist -20.7737
rhand -61.7975 44.2115
rfingers 7.12502
rthumb -33.8613 17.397
lclavicle 6.36111e-014 2.54444e-014
lhumerus 109.628 -48.0027 42.4173
lradius 32.006
lwrist -6.3236
lhand -18.2123 4.81997
lfingers 7.12502
lthumb -171.935 -145.354
rfemur -35.5031 10.1303 18.0727
rtibia 24.482
rfoot -3.86727 7.60563
rtoes -1.09499
lfemur -18.4277 22.3203 -2.10098
ltibia 26.4891
lfoot -7.37837 17.0002
ltoes -15.3172
344
root -6.60757 18.0221 1.22272 1.63684 60.9852 -18.2675
lowerback 5.88369 -9.62379 -8.85498
upperback 1.61903 -13.2708 0.921093
thorax 0.657925 -6.71199 6.20215
lowerneck -9.14056 18.3516 1.97616
upperneck 16.7968 27.9926 -13.9915
head 9.13018 12.164 -1.53126
rclavicle -6.52014e-014 3.18055e-015
rhumerus 20.3915 -24.6725 -63.5928
rradius 102.823
rwrist -21.5999
rhand -61.7522 42.3279
rfingers 7.12502
rthumb -33.8183 15.504
lclavicle -6.52014e-014 3.18055e-015
lhumerus 108.689 -48.7072 43.2075
lradius 31.5289
lwrist -5.97307
lhand -17.469 5.61527
lfingers 7.12502
lthumb -171.217 -144.587
rfemur -35.5726 9.78257 17.8109
rtibia 24.2585
rfoot -3.97832 6.65222
rtoes -4.02803
lfemur -19.4598 22.4597 -2.61398
ltibia 26.5228
lfoot -7.35964 16.6813
ltoes -15.6161
345
root -6.61336 18.0277 1.14122 1.3502 62.2162 -18.8311
lowerback 5.71064 -9.66932 -8.54375
upperback 1.72014 -13.2962 1.17851
thorax 0.855423 -6.7409 6.25761
lowerneck -9.2361 18.1111 2.22724
upperneck 16.9624 27.7114 -14.1835
head 9.2477 12.0143 -1.6387
rclavicle 6.12257e-014 -3.49861e-014
rhumerus 20.0761 -24.3873 -64.4884
rradius 102.324
rwrist -22.3986
rhand -61.7343 41.0161
rfingers 7.12502
rthumb -33.8013 14.1884
lclavicle 6.12257e-014 -3.49861e-014
lhumerus 107.586 -49.5262 43.958
lradius 30.9612
lwrist -5.79299
lhand -16.9382 6.37979
lfingers 7.12502
lthumb -170.705 -143.845
rfemur -35.7034 9.39572 17.4173
rtibia 24.0369
rfoot -3.94027 5.66115
rtoes -5.21035
lfemur -20.6268 22.4853 -3.23761
ltibia 26.5779
lfoot -7.40301 16.2586
ltoes -15.3012
346
root -6.62162 18.0322 1.05823 1.21519 63.5724 -19.1549
lowerback 5.63315 -9.7573 -8.4353
upperback 1.8781 -13.3944 1.40673
thorax 1.1124 -6.81105 6.39373
lowerneck -9.60675 17.9269 2.47083
upperneck 17.2493 27.5056 -14.2301
head 9.43727 11.8843 -1.66223
rclavicle 7.4743e-014 1.27222e-014
rhumerus 19.7503 -24.0116 -65.4358
rradius 101.793
rwrist -23.2224
rhand -61.6794 40.3754
rfingers 7.12502
rthumb -33.7491 13.5363
lclavicle 7.4743e-014 1.27222e-014
lhumerus 106.481 -50.1576 44.4795
lradius 30.5103
lwrist -5.6297
lhand -16.6301 7.00226
lfingers 7.12502
lthumb -170.408 -143.236
rfemur -35.767 9.01927 16.814
rtibia 23.8348
rfoot -3.74765 4.48648
rtoes -5.65919
lfemur -21.7878 22.4371 -4.03049
ltibia 26.6289
lfoot -7.58603 15.6951
ltoes -14.6427
347
root -6.63298 18.0354 0.980158 0.744846 65.0294 -19.7353
lowerback 5.64785 -9.82954 -8.37117
upperback 2.0341 -13.4833 1.71352
thorax 1.3459 -6.87829 6.64952
lowerneck -9.85089 17.6761 2.63336
upperneck 17.4475 27.2026 -14.315
head 9.55985 11.7191 -1.72204
rclavicle -1.11319e-014 -1.90833e-014
rhumerus 19.2347 -23.5232 -66.2133
rradius 101.284
rwrist -24.2055
rhand -61.7788 40.469
rfingers 7.12502
rthumb -33.8435 13.6507
lclavicle -1.11319e-014 -1.90833e-014
lhumerus 105.519 -50.752 44.8806
lradius 30.0908
lwrist -5.30906
lhand -16.2193 7.82961
lfingers 7.12502
lthumb -170.011 -142.427
rfemur -35.6937 8.6845 16.3225
rtibia 23.6703
rfoot -3.59528 3.14146
rtoes -7.55598
lfemur -22.8287 22.2555 -4.66547
ltibia 26.6304
lfoot -7.72593 15.1199
ltoes -14.7433
348
root -6.64336 18.0406 0.900908 -0.169791 66.5477 -20.7594
lowerback 5.65345 -9.85178 -8.098
upperback 2.19668 -13.4951 2.05152
thorax 1.53736 -6.9031 6.83359
lowerneck -9.98929 17.3366 2.77149
upperneck 17.5788 26.7604 -14.4043
head 9.6236 11.5024 -1.81797
rclavicle -1.08934e-013 5.725e-014
rhumerus 18.6044 -23.1979 -66.917
rradius 100.743
rwrist -25.2304
rhand -61.7179 41.9782
rfingers 7.12502
rthumb -33.7857 15.1471
lclavicle -1.08934e-013 5.725e-014
lhumerus 104.348 -51.5932 45.7333
lradius 29.6101
lwrist -4.83242
lhand -15.1659 8.418
lfingers 7.12502
lthumb -168.995 -141.89
rfemur -35.5816 8.28129 16.002
rtibia 23.5604
rfoot -3.47791 1.83417
rtoes -9.33027
lfemur -23.7761 21.769 -5.06907
ltibia 26.5614
lfoot -7.80657 14.657
ltoes -14.52
349
root -6.65109 18.0462 0.81734 -1.2871 68.1742 -21.9903
lowerback 5.52945 -9.85254 -7.75442
upperback 2.45016 -13.4628 2.40591
thorax 1.87573 -6.91298 6.96452
lowerneck -10.4238 16.9451 2.83167
upperneck 17.9006 26.2702 -14.3623
head 9.77134 11.2384 -1.84309
rclavicle -9.62118e-014 2.8625e-014
rhumerus 18.0241 -23.0731 -67.583
rradius 100.215
rwrist -26.2604
rhand -61.6049 41.1569
rfingers 7.12502
rthumb -33.6784 14.3023
lclavicle -9.62118e-014 2.8625e-014
lhumerus 102.516 -52.6441 47.6564
lradius 29.3464
lwrist -3.52152
lhand -12.5432 8.89296
lfingers 7.12502
lthumb -166.467 -141.567
rfemur -35.4602 8.05776 15.5265
rtibia 23.4878
rfoot -3.31673 0.237319
rtoes -9.74726
lfemur -24.6787 21.0571 -5.44296
ltibia 26.4261
lfoot -7.8515 14.1363
ltoes -14.0951
350
root -6.65752 18.0483 0.734238 -2.5015 69.9004 -23.3225
lowerback 5.23133 -9.91127 -7.46105
upperback 2.74461 -13.5017 2.78095
thorax 2.38345 -6.96641 7.09928
lowerneck -10.9267 16.5483 2.86067
upperneck 18.265 25.8007 -14.3694
head 9.95394 10.9701 -1.8711
rclavicle -1.03368e-014 -3.49861e-014
rhumerus 17.4484 -22.7674 -68.2345
rradius 99.7128
rwrist -27.2304
rhand -62.0277 35.8269
rfingers 7.12502
rthumb -34.0801 9.06096
lclavicle -1.03368e-014 -3.49861e-014
lhumerus 101.544 -53.294 48.109
lradius 28.5644
lwrist -4.40592
lhand -13.6939 9.12575
lfingers 7.12502
lthumb -167.576 -141.264
rfemur -35.3086 7.87901 14.9357
rtibia 23.4233
rfoot -3.15944 -1.4812
rtoes -10.4067
lfemur -25.561 20.3338 -5.89836
ltibia 26.2299
lfoot -7.64893 13.409
ltoes -14.8334
351
root -6.66489 18.0517 0.650522 -3.8897 71.6792 -24.794
lowerback 4.95433 -9.98738 -7.20395
upperback 2.96955 -13.5743 3.15726
thorax 2.82245 -7.03117 7.26504
lowerneck -11.2267 16.1148 2.9611
upperneck 18.5877 25.2779 -14.463
head 10.1034 10.6909 -1.96518
rclavicle -4.77083e-015 1.74931e-014
rhumerus 16.6713 -22.2537 -68.8117
rradius 99.0569
rwrist -28.0804
rhand -62.5854 33.6298
rfingers 7.12502
rthumb -34.6095 6.98348
lclavicle -4.77083e-015 1.74931e-014
lhumerus 100.489 -53.9304 48.5663
lradius 27.8521
lwrist -4.43795
lhand -14.18 9.67699
lfingers 7.12502
lthumb -168.045 -140.684
rfemur -35.0922 7.47619 14.3771
rtibia 23.3692
rfoot -3.04168 -2.92948
rtoes -11.7467
lfemur -26.3878 19.5049 -6.36282
ltibia 25.993
lfoot -7.36657 12.5689
ltoes -15.3169
352
root -6.67255 18.0582 0.56348 -5.59582 73.4632 -26.511
lowerback 4.75321 -10.0301 -6.88953
upperback 3.15398 -13.6075 3.49513
thorax 3.14693 -7.06647 7.38599
lowerneck -11.4538 15.6185 3.05482
upperneck 18.9063 24.648 -14.4986
head 10.2167 10.3748 -2.06871
rclavicle 2.06736e-014 2.8625e-014
rhumerus 15.6867 -21.758 -69.3054
rradius 98.2668
rwrist -29.01
rhand -62.6228 35.7034
rfingers 7.12502
rthumb -34.645 9.06515
lclavicle 2.06736e-014 2.8625e-014
lhumerus 99.0023 -54.7378 49.4413
lradius 27.286
lwrist -4.65888
lhand -14.0244 10.2866
lfingers 7.12502
lthumb -167.894 -140.084
rfemur -34.7747 6.89281 13.8546
rtibia 23.3292
rfoot -2.92809 -4.1061
rtoes -12.7606
lfemur -27.0713 18.4542 -6.73737
ltibia 25.7406
lfoot -7.44282 11.7663
ltoes -14.1426
353
root -6.67814 18.0611 0.47569 -7.85671 75.2397 -28.791
lowerback 4.46416 -10.0702 -6.48677
upperback 3.36168 -13.6328 3.84706
thorax 3.52607 -7.09606 7.45779
lowerneck -11.8048 15.1026 3.03577
upperneck 19.2655 23.9978 -14.4527
head 10.3388 10.0408 -2.12775
rclavicle -1.90833e-014 1.43125e-014
rhumerus 14.7688 -21.3178 -69.8492
rradius 97.2993
rwrist -30.0621
rhand -62.4127 37.3302
rfingers 7.12502
rthumb -34.4456 10.6465
lclavicle -1.90833e-014 1.43125e-014
lhumerus 97.066 -55.5608 50.8102
lradius 26.7737
lwrist -5.112
lhand -13.7272 11.0224
lfingers 7.12502
lthumb -167.608 -139.365
rfemur -34.4248 6.2567 13.3852
rtibia 23.2922
rfoot -2.73701 -5.22818
rtoes -13.5513
lfemur -27.7112 17.4499 -7.08773
ltibia 25.4706
lfoot -7.41317 10.9349
ltoes -14.5737
